<svg width="23" height="23" viewBox="0 0 23 23" fill="none" xmlns="http://www.w3.org/2000/svg">
<path fill-rule="evenodd" clip-rule="evenodd" d="M21.264 11.0919V8.00109C21.264 6.95145 20.4408 6.09833 19.4006 6.0157L16.4924 1.002C16.2233 0.537477 15.7869 0.204719 15.2667 0.0684891C14.7489 -0.069974 14.2061 0.00372415 13.7425 0.269484L3.77428 6.00007H2.02396C0.906822 6.00007 0 6.89785 0 8.00109V20.0005C0 21.1037 0.906822 22.0015 2.02396 22.0015H19.2378C20.3549 22.0015 21.264 21.1037 21.264 20.0005V16.9074C21.8519 16.7019 22.2771 16.1525 22.2771 15.5004V12.5011C22.2771 11.849 21.8519 11.2996 21.264 11.0919ZM18.2224 6.00007H13.8104L17.1188 4.09732L18.2224 6.00007ZM16.6168 3.23081L11.7977 6.00007H9.79866L16.117 2.36653L16.6168 3.23081ZM14.2536 1.13376C14.482 1.002 14.7489 0.966266 15.0044 1.03326C15.2622 1.1025 15.4793 1.26776 15.6127 1.49779V1.50002L7.78601 6.00007H5.78693L14.2536 1.13376ZM20.2509 20.0005C20.2509 20.5521 19.7963 21.001 19.2378 21.001H2.02396C1.46539 21.001 1.01085 20.5521 1.01085 20.0005V8.00109C1.01085 7.44947 1.46539 7.00058 2.02396 7.00058H19.2378C19.7963 7.00058 20.2509 7.44947 20.2509 8.00109V11.0004H17.2138C15.5381 11.0004 14.1745 12.347 14.1745 13.9997C14.1745 15.6545 15.5381 17.0012 17.2138 17.0012H20.2509V20.0005ZM21.264 15.5004C21.264 15.7774 21.0356 16.0007 20.7574 16.0007H17.2138C16.0967 16.0007 15.1876 15.1029 15.1876 13.9997C15.1876 12.8964 16.0967 12.0009 17.2138 12.0009H20.7574C21.0356 12.0009 21.264 12.2242 21.264 12.5011V15.5004Z" fill="#212121"/>
<path fill-rule="evenodd" clip-rule="evenodd" d="M17.2138 13.0014C16.6552 13.0014 16.2006 13.4503 16.2006 13.9997C16.2006 14.5513 16.6552 15.0002 17.2138 15.0002C17.7701 15.0002 18.2246 14.5513 18.2246 13.9997C18.2246 13.4503 17.7701 13.0014 17.2138 13.0014Z" fill="#212121"/>
</svg>
