<svg width="23" height="22" viewBox="0 0 23 22" fill="none" xmlns="http://www.w3.org/2000/svg">
<path d="M21.7897 11C21.7897 16.7931 17.0326 21.5 11.1511 21.5C5.26972 21.5 0.512604 16.7931 0.512604 11C0.512604 5.20689 5.26972 0.5 11.1511 0.5C17.0326 0.5 21.7897 5.20689 21.7897 11Z" stroke="#212121"/>
<path d="M11.4871 11.0058L11.5414 11.5029L11.4871 11.0058ZM11.0045 16.8691C10.9322 17.1357 11.0897 17.4103 11.3562 17.4826L15.6994 18.6602C15.9659 18.7325 16.2406 18.575 16.3128 18.3085C16.3851 18.042 16.2276 17.7674 15.9611 17.6951L12.1005 16.6483L13.1473 12.7877C13.2196 12.5212 13.0621 12.2465 12.7956 12.1743C12.5291 12.102 12.2544 12.2595 12.1822 12.526L11.0045 16.8691ZM11.5498 4.51562C11.0886 4.45737 10.5393 4.56824 9.99569 4.75226C9.43936 4.94061 8.83544 5.22435 8.24421 5.56444C7.07144 6.23905 5.88388 7.17318 5.19498 8.10902C4.85377 8.57255 4.59244 9.09343 4.57628 9.62077C4.55865 10.1959 4.83467 10.6911 5.37828 11.0366C5.89071 11.3624 6.63896 11.5581 7.62494 11.6372C8.62101 11.717 9.90918 11.6811 11.5414 11.5029L11.4328 10.5088C9.83651 10.6831 8.61609 10.7134 7.70484 10.6404C6.7835 10.5665 6.2257 10.3904 5.91472 10.1927C5.63493 10.0149 5.57018 9.83515 5.57581 9.6514C5.58291 9.41983 5.70886 9.09778 6.00031 8.70185C6.57675 7.91878 7.6361 7.06788 8.74283 6.43126C9.29134 6.11575 9.8353 5.86232 10.3164 5.69945C10.8102 5.53226 11.1877 5.47784 11.4244 5.50774L11.5498 4.51562ZM11.5414 11.5029C13.1409 11.3282 14.3174 11.2928 15.1567 11.357C16.0182 11.4229 16.4404 11.5885 16.6183 11.7342C16.6933 11.7956 16.7135 11.8438 16.7212 11.8788C16.7306 11.9215 16.7319 11.9968 16.6896 12.1193C16.5999 12.3788 16.3598 12.7225 15.9698 13.127C15.2023 13.9233 14.0298 14.7802 13.0259 15.449C12.5283 15.7804 12.0802 16.0605 11.7567 16.2576C11.595 16.356 11.4647 16.4336 11.3751 16.4864C11.3303 16.5128 11.2957 16.533 11.2726 16.5465C11.261 16.5532 11.2522 16.5583 11.2465 16.5616C11.2436 16.5632 11.2415 16.5645 11.2401 16.5652C11.2395 16.5656 11.239 16.5659 11.2387 16.5661C11.2385 16.5662 11.2385 16.5662 11.2384 16.5662C11.2384 16.5663 11.2384 16.5662 11.4871 17C11.7358 17.4338 11.7359 17.4337 11.7361 17.4336C11.7362 17.4335 11.7364 17.4334 11.7367 17.4332C11.7372 17.433 11.7379 17.4326 11.7387 17.4321C11.7405 17.4311 11.743 17.4296 11.7463 17.4277C11.7529 17.4239 11.7625 17.4184 11.7749 17.4111C11.7998 17.3967 11.8362 17.3754 11.8828 17.3479C11.9761 17.293 12.1106 17.2129 12.2769 17.1116C12.6091 16.9093 13.069 16.6218 13.5803 16.2812C14.5942 15.6057 15.8431 14.6996 16.6898 13.821C17.107 13.3882 17.4722 12.9164 17.6348 12.4459C17.7185 12.2034 17.7577 11.9351 17.6977 11.6634C17.6361 11.384 17.4797 11.1471 17.252 10.9606C16.8246 10.6105 16.137 10.429 15.2329 10.3599C14.3066 10.2891 13.0617 10.3309 11.4328 10.5088L11.5414 11.5029Z" fill="#212121"/>
</svg>
