<svg width="23" height="17" viewBox="0 0 23 17" fill="none" xmlns="http://www.w3.org/2000/svg">
<path fill-rule="evenodd" clip-rule="evenodd" d="M20.3399 16.1765H19.8557C19.0533 16.1765 18.4028 15.5374 18.4028 14.7491H3.87427C3.87427 15.5374 3.22381 16.1765 2.42142 16.1765H1.93714C1.13475 16.1765 0.484284 15.5374 0.484284 14.7491V8.31912C0.484284 7.56202 0.79042 6.83592 1.33535 6.30056L1.93714 5.70934H0.955498C0.427791 5.70934 0 5.28906 0 4.77063C0 4.48346 0.198933 4.23315 0.482504 4.1635L1.3354 3.95402C1.64105 3.87895 1.93714 4.10607 1.93714 4.41559V5.23356H2.42142L3.29032 2.10356C3.63509 0.861601 4.78331 0 6.09364 0H16.1834C17.4938 0 18.642 0.861601 18.9868 2.10356L19.8557 5.23356H20.3399V4.41559C20.3399 4.10607 20.636 3.87895 20.9417 3.95402L21.7946 4.1635C22.0781 4.23315 22.2771 4.48346 22.2771 4.77063C22.2771 5.28906 21.8493 5.70934 21.3216 5.70934H20.3399L20.9417 6.30056C21.4867 6.83592 21.7928 7.56202 21.7928 8.31912V14.7491C21.7928 15.5374 21.1423 16.1765 20.3399 16.1765ZM2.96161 5.05013L3.73724 2.51013C4.10596 1.30265 5.23721 0.475739 6.5204 0.475739H15.8039C17.0871 0.475739 18.2184 1.30265 18.5871 2.51013L19.3627 5.05013C19.3939 5.1523 19.3368 5.26034 19.2338 5.29407C18.394 5.56909 17.5145 5.7093 16.6293 5.7093H5.69502C4.80977 5.7093 3.93031 5.56909 3.0905 5.29407C2.98749 5.26034 2.93041 5.1523 2.96161 5.05013ZM16.6253 8.23113C17.882 7.71892 18.561 7.11752 19.3695 6.33806C19.5819 6.13326 19.9298 6.16227 20.1028 6.4002L20.5508 7.0164C20.8008 7.36024 20.7611 7.83124 20.457 8.13002C20.0155 8.56371 19.4319 8.82964 18.8098 8.88058L17.4786 8.98956C17.1016 9.02043 16.7373 8.84764 16.5275 8.53844C16.4536 8.42951 16.5022 8.28129 16.6253 8.23113ZM5.56925 8.23119C4.31255 7.71898 3.63353 7.11758 2.82507 6.33812C2.61265 6.13332 2.26473 6.16233 2.09174 6.40026L1.64373 7.01646C1.39374 7.3603 1.43342 7.8313 1.73754 8.13008C2.17899 8.56377 2.76261 8.8297 3.38475 8.88064L4.71597 8.98962C5.09293 9.02049 5.45718 8.8477 5.667 8.5385C5.74091 8.42957 5.69233 8.28135 5.56925 8.23119ZM5.66947 12.9853C5.7603 12.8961 5.88348 12.846 6.01192 12.846H16.265C16.3934 12.846 16.5166 12.8961 16.6074 12.9853L17.0208 13.3914C17.1733 13.5413 17.0653 13.7975 16.8496 13.7975H5.42733C5.21161 13.7975 5.10357 13.5413 5.25611 13.3914L5.66947 12.9853Z" fill="#212121"/>
</svg>
