<svg width="46" height="17" viewBox="0 0 46 17" fill="none" xmlns="http://www.w3.org/2000/svg">
<path d="M-3.71547e-07 8.5L12.75 1.13878L12.75 15.8612L-3.71547e-07 8.5Z" fill="#D7B399"/>
<path d="M12.75 1H45.75V16H12.75V1Z" fill="#D7B399"/>
<path d="M14.4663 9.156V7.404H18.1623V9.156H14.4663ZM20.8974 12V5.412L19.4334 5.772L19.0494 4.26L21.4614 3.54H22.7214V12H20.8974ZM31.2519 10.908C30.5559 11.732 29.6559 12.144 28.5519 12.144C27.4479 12.144 26.5519 11.732 25.8639 10.908C25.1759 10.084 24.8319 9.048 24.8319 7.8C24.8319 6.56 25.1799 5.528 25.8759 4.704C26.5719 3.872 27.4719 3.456 28.5759 3.456C29.6719 3.456 30.5639 3.868 31.2519 4.692C31.9479 5.516 32.2959 6.552 32.2959 7.8C32.2959 9.04 31.9479 10.076 31.2519 10.908ZM27.2319 9.72C27.5759 10.224 28.0239 10.476 28.5759 10.476C29.1279 10.476 29.5679 10.228 29.8959 9.732C30.2319 9.228 30.3999 8.584 30.3999 7.8C30.3999 7.032 30.2279 6.396 29.8839 5.892C29.5399 5.38 29.0959 5.124 28.5519 5.124C28.0079 5.124 27.5679 5.376 27.2319 5.88C26.8959 6.376 26.7279 7.016 26.7279 7.8C26.7279 8.576 26.8959 9.216 27.2319 9.72ZM37.3535 7.176C36.9695 7.592 36.4775 7.8 35.8775 7.8C35.2775 7.8 34.7895 7.596 34.4135 7.188C34.0375 6.772 33.8495 6.26 33.8495 5.652C33.8495 5.044 34.0415 4.536 34.4255 4.128C34.8095 3.712 35.3015 3.504 35.9015 3.504C36.5015 3.504 36.9895 3.712 37.3655 4.128C37.7415 4.536 37.9295 5.044 37.9295 5.652C37.9295 6.252 37.7375 6.76 37.3535 7.176ZM34.6895 12L40.8215 3.6H42.2495L36.1175 12H34.6895ZM42.5135 11.472C42.1295 11.888 41.6375 12.096 41.0375 12.096C40.4375 12.096 39.9495 11.892 39.5735 11.484C39.1975 11.068 39.0095 10.556 39.0095 9.948C39.0095 9.34 39.2015 8.832 39.5855 8.424C39.9695 8.008 40.4615 7.8 41.0615 7.8C41.6615 7.8 42.1495 8.008 42.5255 8.424C42.9015 8.832 43.0895 9.34 43.0895 9.948C43.0895 10.548 42.8975 11.056 42.5135 11.472ZM35.9015 6.708C36.1415 6.708 36.3295 6.608 36.4655 6.408C36.6015 6.2 36.6695 5.948 36.6695 5.652C36.6695 5.364 36.5935 5.116 36.4415 4.908C36.2975 4.7 36.1095 4.596 35.8775 4.596C35.6375 4.596 35.4495 4.696 35.3135 4.896C35.1775 5.096 35.1095 5.348 35.1095 5.652C35.1095 5.94 35.1815 6.188 35.3255 6.396C35.4775 6.604 35.6695 6.708 35.9015 6.708ZM41.0615 11.004C41.3015 11.004 41.4895 10.904 41.6255 10.704C41.7615 10.496 41.8295 10.244 41.8295 9.948C41.8295 9.66 41.7535 9.412 41.6015 9.204C41.4575 8.996 41.2695 8.892 41.0375 8.892C40.7975 8.892 40.6095 8.992 40.4735 9.192C40.3375 9.392 40.2695 9.644 40.2695 9.948C40.2695 10.236 40.3415 10.484 40.4855 10.692C40.6375 10.9 40.8295 11.004 41.0615 11.004Z" fill="white"/>
</svg>
