<svg width="17" height="16" viewBox="0 0 17 16" fill="none" xmlns="http://www.w3.org/2000/svg">
<path d="M8.22642 1C9.06096 1 9.85589 1.32266 10.4377 1.88848C11.0186 2.45337 11.3396 3.2135 11.3396 4C11.3396 4.7865 11.0186 5.54663 10.4377 6.11152C9.85589 6.67734 9.06096 7 8.22642 7C7.39188 7 6.59694 6.67734 6.01511 6.11152C5.43423 5.54663 5.11321 4.7865 5.11321 4C5.11321 3.2135 5.43423 2.45337 6.01511 1.88848C6.59694 1.32266 7.39188 1 8.22642 1ZM8.22642 11C10.3813 11 12.282 11.4264 13.6067 12.0706C14.9993 12.7477 15.4528 13.4923 15.4528 14V15H1V14C1 13.4923 1.45357 12.7477 2.84608 12.0706C4.17082 11.4264 6.07153 11 8.22642 11Z" stroke="#D7B399" stroke-width="2"/>
</svg>
