<svg width="29" height="17" viewBox="0 0 29 17" fill="none" xmlns="http://www.w3.org/2000/svg">
<path fill-rule="evenodd" clip-rule="evenodd" d="M14.1279 16.0911H15.8733C15.8733 16.0911 16.3969 16.0055 16.6587 15.7487C16.9205 15.4919 16.9205 14.9784 16.9205 14.9784C16.9205 14.9784 16.9205 12.753 17.9677 12.4107C19.015 12.0683 20.4113 14.636 21.8076 15.5775C22.8548 16.3478 23.6402 16.1767 23.6402 16.1767L27.4801 16.0911C27.4801 16.0911 29.4873 16.0055 28.5273 14.3792C28.44 14.2937 28.0037 13.2666 25.6474 11.1268C23.2039 8.90144 23.553 9.32939 26.4328 5.47781C28.1782 3.16686 28.8764 1.79741 28.7018 1.11268C28.5273 0.513544 27.2183 0.684725 27.2183 0.684725H22.8548C22.8548 0.684725 22.5057 0.599135 22.3312 0.770316C22.0694 0.941498 21.9821 1.19827 21.9821 1.19827C21.9821 1.19827 21.284 2.99568 20.4113 4.53631C18.4913 7.70317 17.7059 7.87435 17.4441 7.70317C16.746 7.27521 16.9205 5.82017 16.9205 4.87867C16.9205 1.7974 17.4441 0.513544 15.9605 0.171181C15.5242 0.0855898 15.1751 0 13.9534 0C12.3825 0 11.0735 -3.31604e-07 10.3753 0.342363C9.85171 0.599135 9.50263 1.11268 9.76444 1.11268C10.0262 1.11268 10.7244 1.28386 11.0735 1.71181C11.4226 2.48213 11.4226 3.76599 11.4226 3.76599C11.4226 3.76599 11.6844 7.44639 10.8117 7.87435C10.2008 8.21671 9.41537 7.53199 7.66998 4.6219C6.79729 3.16686 6.09914 1.45504 6.09914 1.45504C6.09914 1.45504 6.01187 1.11268 5.75006 0.941499C5.48826 0.770317 5.05191 0.684725 5.05191 0.684725H0.950263C0.950263 0.684725 0.33938 0.684726 0.0775725 0.941499C-0.0969656 1.19827 0.0775725 1.62622 0.0775725 1.62622C0.0775725 1.62622 3.30653 8.98703 6.97183 12.753C10.3753 16.3478 14.1279 16.0911 14.1279 16.0911Z" fill="#D7B399"/>
</svg>
