<svg width="20" height="17" viewBox="0 0 20 17" fill="none" xmlns="http://www.w3.org/2000/svg">
<path fill-rule="evenodd" clip-rule="evenodd" d="M4 1C4 0.447715 4.44772 0 5 0H15C15.5523 0 16 0.447715 16 1V13C16 13.5523 15.5523 14 15 14H5C4.44772 14 4 13.5523 4 13V1ZM6 2V12H14V2H6Z" fill="#D7B399"/>
<path d="M1 4C0.447715 4 0 4.44772 0 5V16C0 16.5523 0.447715 17 1 17H11C11.5523 17 12 16.5523 12 16V13H10V15H2V6H5V4H1Z" fill="#D7B399"/>
<path d="M10.8659 8.5L18.6602 4L19.6602 5.73205L11.8659 10.2321L10.4999 9.86602L10.8659 8.5Z" fill="#D7B399"/>
</svg>
