<svg width="26" height="26" viewBox="0 0 26 26" fill="none" xmlns="http://www.w3.org/2000/svg">
<path d="M12.5911 8.39451C10.2785 8.39451 8.3912 10.2818 8.3912 12.5944C8.3912 14.9071 10.2785 16.7944 12.5911 16.7944C14.9037 16.7944 16.7909 14.9071 16.7909 12.5944C16.7909 10.2818 14.9037 8.39451 12.5911 8.39451ZM25.1875 12.5944C25.1875 10.8552 25.2032 9.13178 25.1056 7.39572C25.0079 5.37925 24.5479 3.58963 23.0734 2.11508C21.5957 0.637386 19.8093 0.180529 17.7928 0.0828564C16.0537 -0.0148166 14.3302 0.000937169 12.5942 0.000937169C10.855 0.000937169 9.13161 -0.0148166 7.39559 0.0828564C5.37915 0.180529 3.58956 0.640537 2.11504 2.11508C0.637375 3.59278 0.180526 5.37925 0.0828548 7.39572C-0.0148163 9.13493 0.000937152 10.8584 0.000937152 12.5944C0.000937152 14.3305 -0.0148163 16.0571 0.0828548 17.7932C0.180526 19.8096 0.640525 21.5993 2.11504 23.0738C3.59271 24.5515 5.37915 25.0084 7.39559 25.106C9.13476 25.2037 10.8582 25.188 12.5942 25.188C14.3334 25.188 16.0568 25.2037 17.7928 25.106C19.8093 25.0084 21.5989 24.5484 23.0734 23.0738C24.551 21.5961 25.0079 19.8096 25.1056 17.7932C25.2064 16.0571 25.1875 14.3337 25.1875 12.5944ZM12.5911 19.0566C9.01503 19.0566 6.12901 16.1705 6.12901 12.5944C6.12901 9.01835 9.01503 6.13228 12.5911 6.13228C16.1671 6.13228 19.0531 9.01835 19.0531 12.5944C19.0531 16.1705 16.1671 19.0566 12.5911 19.0566ZM19.3178 7.37682C18.4828 7.37682 17.8086 6.70256 17.8086 5.86761C17.8086 5.03267 18.4828 4.35841 19.3178 4.35841C20.1527 4.35841 20.8269 5.03267 20.8269 5.86761C20.8272 6.06588 20.7883 6.26224 20.7126 6.44546C20.6368 6.62867 20.5257 6.79515 20.3855 6.93534C20.2453 7.07553 20.0788 7.18669 19.8956 7.26244C19.7124 7.3382 19.516 7.37707 19.3178 7.37682Z" fill="#D7B399"/>
</svg>
